<?xml version="1.0" encoding="UTF-8" ?>
<!DOCTYPE svg PUBLIC "-//W3C//DTD SVG 1.1//EN" "http://www.w3.org/Graphics/SVG/1.1/DTD/svg11.dtd">
<svg width="167pt" height="158pt" viewBox="0 0 167 158" version="1.1" xmlns="http://www.w3.org/2000/svg">
<g id="#ffffffff">
<path fill="#ffffff" opacity="1.00" d=" M 0.00 73.43 C 27.64 48.96 55.24 24.43 82.95 0.03 L 84.00 0.36 C 111.03 24.30 138.04 48.26 165.10 72.17 C 165.58 72.46 166.53 73.04 167.00 73.33 L 167.00 73.67 C 166.86 73.64 166.57 73.58 166.43 73.55 C 163.96 77.14 160.69 80.10 157.96 83.48 C 133.03 61.43 108.16 39.31 83.19 17.31 C 58.36 39.42 33.45 61.45 8.51 83.45 C 5.67 80.26 2.92 77.00 0.00 73.89 L 0.00 73.43 Z" />
<path fill="#ffffff" opacity="1.00" d=" M 24.64 10.58 C 31.66 10.70 38.82 10.32 45.76 10.78 C 45.55 14.90 45.72 19.04 45.48 23.15 C 38.49 29.35 31.63 35.71 24.64 41.91 C 24.64 31.47 24.65 21.02 24.64 10.58 Z" />
<path fill="#ffffff" opacity="1.00" d=" M 24.71 80.22 C 44.19 62.93 63.76 45.73 83.19 28.37 C 102.76 45.58 122.22 62.93 141.76 80.19 C 141.84 104.82 141.77 129.46 141.79 154.09 C 142.09 155.94 140.56 157.11 139.21 158.00 L 101.77 158.00 C 101.62 147.02 101.79 136.03 101.69 125.05 C 101.61 122.76 99.09 121.56 97.06 121.85 C 87.67 121.87 78.29 121.85 68.91 121.85 C 67.02 121.72 65.12 122.91 64.75 124.84 C 64.61 135.89 64.91 146.96 64.60 158.00 L 28.38 158.00 C 26.28 157.96 24.36 156.09 24.65 153.95 C 24.68 129.38 24.56 104.79 24.71 80.22 Z" />
</g>
</svg>
