<?xml version="1.0" encoding="UTF-8" ?>
<!DOCTYPE svg PUBLIC "-//W3C//DTD SVG 1.1//EN" "http://www.w3.org/Graphics/SVG/1.1/DTD/svg11.dtd">
<svg width="166pt" height="165pt" viewBox="0 0 166 165" version="1.1" xmlns="http://www.w3.org/2000/svg">
<g id="#ffffffff">
<path fill="#ffffff" opacity="1.00" d=" M 72.43 0.00 L 93.24 0.00 C 97.07 1.26 101.06 1.93 104.94 3.00 C 125.68 8.62 143.90 22.75 154.67 41.32 C 161.16 52.36 164.92 64.92 166.00 77.65 L 166.00 87.40 C 164.78 107.37 156.22 126.88 142.08 141.08 C 130.47 153.02 115.13 161.23 98.82 164.48 C 96.69 164.78 94.55 164.87 92.41 165.00 L 73.62 165.00 C 59.06 164.30 45.18 157.98 33.51 149.49 C 14.36 135.45 2.19 112.89 0.00 89.33 L 0.00 72.72 C 1.48 68.17 2.20 63.41 3.64 58.84 C 11.38 32.85 32.77 11.47 58.74 3.66 C 63.25 2.23 67.96 1.58 72.43 0.00 M 75.34 17.09 C 52.35 19.56 31.43 35.10 22.27 56.32 C 14.11 74.46 14.85 96.31 24.31 113.83 C 31.90 128.45 45.19 139.92 60.70 145.43 C 78.54 152.02 99.20 150.17 115.65 140.65 C 138.45 128.11 152.25 101.16 148.88 75.33 C 146.82 57.32 136.98 40.29 122.30 29.64 C 108.99 19.70 91.84 15.06 75.34 17.09 Z" />
<path fill="#ffffff" opacity="1.00" d=" M 58.32 49.57 C 63.75 49.65 69.18 49.64 74.61 49.59 C 74.65 71.86 74.66 94.13 74.60 116.40 C 69.18 116.35 63.75 116.34 58.33 116.42 C 58.25 94.13 58.27 71.85 58.32 49.57 Z" />
<path fill="#ffffff" opacity="1.00" d=" M 91.38 49.59 C 96.81 49.64 102.24 49.65 107.67 49.57 C 107.72 71.85 107.74 94.14 107.66 116.42 C 102.24 116.34 96.81 116.35 91.38 116.40 C 91.32 94.13 91.34 71.86 91.38 49.59 Z" />
</g>
</svg>
