<?xml version="1.0" encoding="UTF-8" ?>
<!DOCTYPE svg PUBLIC "-//W3C//DTD SVG 1.1//EN" "http://www.w3.org/Graphics/SVG/1.1/DTD/svg11.dtd">
<svg width="167pt" height="165pt" viewBox="0 0 167 165" version="1.1" xmlns="http://www.w3.org/2000/svg">
<g id="#ffffffff">
<path fill="#ffffff" opacity="1.00" d=" M 28.98 19.88 C 41.84 8.78 58.29 2.24 75.08 0.25 C 82.04 -0.10 89.04 0.17 95.98 0.73 C 113.28 3.42 129.96 11.15 142.51 23.47 C 155.77 36.08 164.58 53.29 167.00 71.43 L 167.00 93.36 C 164.55 111.79 155.47 129.20 141.92 141.91 C 129.15 154.06 112.42 161.66 95.06 164.26 C 87.41 164.85 79.69 164.88 72.04 164.21 C 55.23 161.52 38.91 154.37 26.43 142.63 C 11.15 128.80 1.42 108.98 0.00 88.41 L 0.00 76.65 C 1.36 54.83 12.23 33.88 28.98 19.88 M 79.27 16.39 C 62.86 17.32 46.87 24.57 35.41 36.37 C 25.55 46.16 18.94 59.17 16.79 72.90 C 16.35 82.53 15.75 92.51 19.15 101.73 C 26.37 125.24 47.68 143.62 71.95 147.45 C 88.89 150.48 106.97 146.91 121.30 137.31 C 136.82 127.24 147.82 110.42 150.66 92.13 C 151.05 85.74 151.02 79.30 150.69 72.91 C 148.16 56.23 138.86 40.71 125.47 30.47 C 112.50 20.30 95.70 15.31 79.27 16.39 Z" />
<path fill="#ffffff" opacity="1.00" d=" M 63.64 43.20 C 84.48 56.33 105.77 68.76 126.67 81.79 C 127.19 82.05 128.21 82.55 128.72 82.80 C 128.64 83.16 128.49 83.88 128.41 84.24 C 127.04 84.62 125.87 85.44 124.70 86.21 C 104.47 98.87 83.78 110.81 63.67 123.65 C 63.47 96.84 63.52 70.01 63.64 43.20 Z" />
</g>
</svg>
