<?xml version="1.0" encoding="UTF-8" ?>
<!DOCTYPE svg PUBLIC "-//W3C//DTD SVG 1.1//EN" "http://www.w3.org/Graphics/SVG/1.1/DTD/svg11.dtd">
<svg width="166pt" height="165pt" viewBox="0 0 166 165" version="1.1" xmlns="http://www.w3.org/2000/svg">
<g id="#ffffffff">
<path fill="#ffffff" opacity="1.00" d=" M 71.12 0.00 L 94.63 0.00 C 98.95 1.93 103.70 2.47 108.17 3.94 C 127.12 9.97 143.67 23.10 153.96 40.12 C 160.85 51.40 164.84 64.36 166.00 77.51 L 166.00 87.51 C 164.72 107.67 156.00 127.37 141.58 141.58 C 130.05 153.26 114.93 161.26 98.85 164.47 C 96.74 164.78 94.61 164.87 92.49 165.00 L 73.51 165.00 C 59.00 164.25 45.15 157.98 33.52 149.50 C 14.38 135.49 2.27 112.98 0.00 89.47 L 0.00 71.37 C 1.76 67.35 2.34 62.96 3.64 58.80 C 11.49 32.58 33.20 11.04 59.49 3.44 C 63.36 2.26 67.45 1.77 71.12 0.00 M 75.27 17.10 C 54.84 19.35 35.90 31.86 25.67 49.67 C 16.08 65.84 13.99 86.19 20.05 103.97 C 25.06 118.89 35.50 131.92 49.06 139.93 C 64.43 149.27 83.71 151.82 101.00 146.83 C 116.89 142.33 130.96 131.70 139.54 117.57 C 147.86 104.11 151.14 87.59 148.40 72.00 C 145.62 55.23 136.06 39.63 122.29 29.64 C 108.99 19.65 91.78 15.06 75.27 17.10 Z" />
<path fill="#ffffff" opacity="1.00" d=" M 35.33 79.32 C 50.57 67.55 65.66 55.60 80.91 43.85 C 81.00 54.42 80.83 64.99 81.00 75.56 C 94.79 65.20 108.20 54.32 121.91 43.85 C 121.93 69.66 121.97 95.48 121.89 121.29 C 108.15 110.88 94.76 100.00 81.00 89.61 C 80.82 100.17 81.02 110.73 80.89 121.30 C 64.27 108.62 47.97 95.52 31.36 82.84 C 32.57 81.54 33.94 80.41 35.33 79.32 Z" />
</g>
</svg>
