<?xml version="1.0" encoding="UTF-8" ?>
<!DOCTYPE svg PUBLIC "-//W3C//DTD SVG 1.1//EN" "http://www.w3.org/Graphics/SVG/1.1/DTD/svg11.dtd">
<svg width="166pt" height="165pt" viewBox="0 0 166 165" version="1.1" xmlns="http://www.w3.org/2000/svg">
<g id="#ffffffff">
<path fill="#ffffff" opacity="1.00" d=" M 71.16 0.00 L 94.63 0.00 C 98.95 1.92 103.69 2.47 108.16 3.95 C 127.12 9.96 143.67 23.10 153.95 40.11 C 160.85 51.41 164.85 64.38 166.00 77.54 L 166.00 87.47 C 164.74 107.65 156.00 127.36 141.58 141.58 C 130.05 153.27 114.91 161.25 98.83 164.48 C 96.72 164.79 94.59 164.88 92.47 165.00 L 73.54 165.00 C 58.78 164.24 44.71 157.80 32.96 149.07 C 14.12 135.04 2.24 112.72 0.00 89.44 L 0.00 71.35 C 1.74 67.62 2.20 63.49 3.41 59.59 C 11.12 32.79 33.31 10.74 60.18 3.25 C 63.84 2.16 67.70 1.69 71.16 0.00 M 75.28 17.10 C 51.22 19.67 29.51 36.66 21.04 59.31 C 14.27 76.59 15.35 96.76 23.97 113.20 C 31.56 128.10 44.99 139.89 60.76 145.46 C 77.93 151.75 97.71 150.32 113.82 141.67 C 129.04 133.74 140.84 119.66 146.12 103.34 C 154.68 78.18 145.84 48.43 125.12 31.86 C 111.46 20.39 92.99 14.89 75.28 17.10 Z" />
<path fill="#ffffff" opacity="1.00" d=" M 46.04 45.04 C 70.35 44.98 94.66 44.98 118.97 45.04 C 119.02 69.68 119.02 94.32 118.97 118.96 C 94.66 119.02 70.34 119.02 46.04 118.96 C 45.98 94.32 45.98 69.68 46.04 45.04 Z" />
</g>
</svg>
